# xmcd CD database file
#
# Track frame offsets:
#	187
#	13137
#	26812
#	39712
#	53362
#	65337
#	76687
#	89512
#	101287
#	113287
#	125812
#	136087
#
# Disc length: 1955 seconds
#
# Revision: 2
# Processed by: cddbd v1.5PL3 Copyright (c) Steve Scherf et al.
# Submitted via: CDex 1.50
#
DISCID=8d07a10c
DTITLE=Robert Johnson - The Best Recordings
DYEAR=1990
DGENRE=Blues
TTITLE0=Kindhearted Woman Blues
TTITLE1=Sweet Home Chicago
TTITLE2=Rambling On My Mind
TTITLE3=Terraplane Blues
TTITLE4=Phonograph Blues
TTITLE5=Walking Blues
TTITLE6=Preaching Blues
TTITLE7=I'm A Steady Rollin' Man
TTITLE8=Me And The Devil Blues
TTITLE9=Travelling Riverside Blues
TTITLE10=Honeymoon Blues
TTITLE11=Milkcow's Calf Blues
EXTD=YEAR: 1990
EXTT0=
EXTT1=
EXTT2=
EXTT3=
EXTT4=
EXTT5=
EXTT6=
EXTT7=
EXTT8=
EXTT9=
EXTT10=
EXTT11=
PLAYORDER=
